<?xml version="1.0" encoding="UTF-8" standalone="no"?>
<!DOCTYPE svg PUBLIC "-//W3C//DTD SVG 1.1//EN"
 "http://www.w3.org/Graphics/SVG/1.1/DTD/svg11.dtd">
<!-- Generated by graphviz version 2.36.0 (20140111.2315)
 -->
<!-- Title: controllers_diagram Pages: 1 -->
<svg width="678pt" height="696pt"
 viewBox="0.00 0.00 678.00 696.00" xmlns="http://www.w3.org/2000/svg" xmlns:xlink="http://www.w3.org/1999/xlink">
<g id="graph0" class="graph" transform="scale(1 1) rotate(0) translate(4 692)">
<title>controllers_diagram</title>
<polygon fill="none" stroke="none" points="-4,4 -4,-692 674,-692 674,4 -4,4"/>
<!-- _diagram_info -->
<g id="node1" class="node"><title>_diagram_info</title>
<text text-anchor="start" x="331" y="-114.6" font-family="Times,serif" font-size="13.00">Controllers diagram</text>
<text text-anchor="start" x="331" y="-100.6" font-family="Times,serif" font-size="13.00">Date: Jun 01 2016 &#45; 10:45</text>
<text text-anchor="start" x="331" y="-86.6" font-family="Times,serif" font-size="13.00">Migration version: 20160531130543</text>
<text text-anchor="start" x="331" y="-72.6" font-family="Times,serif" font-size="13.00">Generated by RailRoady 1.4.2</text>
<text text-anchor="start" x="331" y="-58.6" font-family="Times,serif" font-size="13.00">http://railroady.prestonlee.com</text>
</g>
<!-- CommentsController -->
<g id="node2" class="node"><title>CommentsController</title>
<path fill="none" stroke="black" d="M165,-136.5C165,-136.5 273,-136.5 273,-136.5 279,-136.5 285,-142.5 285,-148.5 285,-148.5 285,-367.5 285,-367.5 285,-373.5 279,-379.5 273,-379.5 273,-379.5 165,-379.5 165,-379.5 159,-379.5 153,-373.5 153,-367.5 153,-367.5 153,-148.5 153,-148.5 153,-142.5 159,-136.5 165,-136.5"/>
<text text-anchor="middle" x="219" y="-364.3" font-family="Times,serif" font-size="14.00">CommentsController</text>
<polyline fill="none" stroke="black" points="153,-356.5 285,-356.5 "/>
<text text-anchor="start" x="161" y="-341.3" font-family="Times,serif" font-size="14.00">create</text>
<text text-anchor="start" x="161" y="-326.3" font-family="Times,serif" font-size="14.00">destroy</text>
<text text-anchor="start" x="161" y="-311.3" font-family="Times,serif" font-size="14.00">edit</text>
<text text-anchor="start" x="161" y="-296.3" font-family="Times,serif" font-size="14.00">index</text>
<text text-anchor="start" x="161" y="-281.3" font-family="Times,serif" font-size="14.00">new</text>
<text text-anchor="start" x="161" y="-266.3" font-family="Times,serif" font-size="14.00">show</text>
<text text-anchor="start" x="161" y="-251.3" font-family="Times,serif" font-size="14.00">update</text>
<polyline fill="none" stroke="black" points="153,-243.5 285,-243.5 "/>
<polyline fill="none" stroke="black" points="153,-219.5 285,-219.5 "/>
<text text-anchor="start" x="161" y="-204.3" font-family="Times,serif" font-size="14.00">_layout</text>
<text text-anchor="start" x="161" y="-189.3" font-family="Times,serif" font-size="14.00">comment_params</text>
<text text-anchor="start" x="161" y="-174.3" font-family="Times,serif" font-size="14.00">find_comment</text>
<text text-anchor="start" x="161" y="-159.3" font-family="Times,serif" font-size="14.00">find_question</text>
<text text-anchor="start" x="161" y="-144.3" font-family="Times,serif" font-size="14.00">set_comment</text>
</g>
<!-- CalendarController -->
<g id="node3" class="node"><title>CalendarController</title>
<path fill="none" stroke="black" d="M12,-68.5C12,-68.5 109,-68.5 109,-68.5 115,-68.5 121,-74.5 121,-80.5 121,-80.5 121,-149.5 121,-149.5 121,-155.5 115,-161.5 109,-161.5 109,-161.5 12,-161.5 12,-161.5 6,-161.5 0,-155.5 0,-149.5 0,-149.5 0,-80.5 0,-80.5 0,-74.5 6,-68.5 12,-68.5"/>
<text text-anchor="middle" x="60.5" y="-146.3" font-family="Times,serif" font-size="14.00">CalendarController</text>
<polyline fill="none" stroke="black" points="0,-138.5 121,-138.5 "/>
<text text-anchor="start" x="8" y="-123.3" font-family="Times,serif" font-size="14.00">index</text>
<polyline fill="none" stroke="black" points="0,-115.5 121,-115.5 "/>
<polyline fill="none" stroke="black" points="0,-91.5 121,-91.5 "/>
<text text-anchor="start" x="8" y="-76.3" font-family="Times,serif" font-size="14.00">_layout</text>
</g>
<!-- CoursesController -->
<g id="node4" class="node"><title>CoursesController</title>
<path fill="none" stroke="black" d="M335,-170.5C335,-170.5 427,-170.5 427,-170.5 433,-170.5 439,-176.5 439,-182.5 439,-182.5 439,-401.5 439,-401.5 439,-407.5 433,-413.5 427,-413.5 427,-413.5 335,-413.5 335,-413.5 329,-413.5 323,-407.5 323,-401.5 323,-401.5 323,-182.5 323,-182.5 323,-176.5 329,-170.5 335,-170.5"/>
<text text-anchor="middle" x="381" y="-398.3" font-family="Times,serif" font-size="14.00">CoursesController</text>
<polyline fill="none" stroke="black" points="323,-390.5 439,-390.5 "/>
<text text-anchor="start" x="331" y="-375.3" font-family="Times,serif" font-size="14.00">create</text>
<text text-anchor="start" x="331" y="-360.3" font-family="Times,serif" font-size="14.00">destroy</text>
<text text-anchor="start" x="331" y="-345.3" font-family="Times,serif" font-size="14.00">downvote</text>
<text text-anchor="start" x="331" y="-330.3" font-family="Times,serif" font-size="14.00">edit</text>
<text text-anchor="start" x="331" y="-315.3" font-family="Times,serif" font-size="14.00">index</text>
<text text-anchor="start" x="331" y="-300.3" font-family="Times,serif" font-size="14.00">new</text>
<text text-anchor="start" x="331" y="-285.3" font-family="Times,serif" font-size="14.00">show</text>
<text text-anchor="start" x="331" y="-270.3" font-family="Times,serif" font-size="14.00">update</text>
<text text-anchor="start" x="331" y="-255.3" font-family="Times,serif" font-size="14.00">upvote</text>
<polyline fill="none" stroke="black" points="323,-247.5 439,-247.5 "/>
<polyline fill="none" stroke="black" points="323,-223.5 439,-223.5 "/>
<text text-anchor="start" x="331" y="-208.3" font-family="Times,serif" font-size="14.00">_layout</text>
<text text-anchor="start" x="331" y="-193.3" font-family="Times,serif" font-size="14.00">course_params</text>
<text text-anchor="start" x="331" y="-178.3" font-family="Times,serif" font-size="14.00">set_course</text>
</g>
<!-- BirthdayController -->
<g id="node5" class="node"><title>BirthdayController</title>
<path fill="none" stroke="black" d="M165,-0.5C165,-0.5 260,-0.5 260,-0.5 266,-0.5 272,-6.5 272,-12.5 272,-12.5 272,-81.5 272,-81.5 272,-87.5 266,-93.5 260,-93.5 260,-93.5 165,-93.5 165,-93.5 159,-93.5 153,-87.5 153,-81.5 153,-81.5 153,-12.5 153,-12.5 153,-6.5 159,-0.5 165,-0.5"/>
<text text-anchor="middle" x="212.5" y="-78.3" font-family="Times,serif" font-size="14.00">BirthdayController</text>
<polyline fill="none" stroke="black" points="153,-70.5 272,-70.5 "/>
<text text-anchor="start" x="161" y="-55.3" font-family="Times,serif" font-size="14.00">index</text>
<polyline fill="none" stroke="black" points="153,-47.5 272,-47.5 "/>
<polyline fill="none" stroke="black" points="153,-23.5 272,-23.5 "/>
<text text-anchor="start" x="161" y="-8.3" font-family="Times,serif" font-size="14.00">_layout</text>
</g>
<!-- QuestionsController -->
<g id="node6" class="node"><title>QuestionsController</title>
<path fill="none" stroke="black" d="M182,-408.5C182,-408.5 284,-408.5 284,-408.5 290,-408.5 296,-414.5 296,-420.5 296,-420.5 296,-609.5 296,-609.5 296,-615.5 290,-621.5 284,-621.5 284,-621.5 182,-621.5 182,-621.5 176,-621.5 170,-615.5 170,-609.5 170,-609.5 170,-420.5 170,-420.5 170,-414.5 176,-408.5 182,-408.5"/>
<text text-anchor="middle" x="233" y="-606.3" font-family="Times,serif" font-size="14.00">QuestionsController</text>
<polyline fill="none" stroke="black" points="170,-598.5 296,-598.5 "/>
<text text-anchor="start" x="178" y="-583.3" font-family="Times,serif" font-size="14.00">create</text>
<text text-anchor="start" x="178" y="-568.3" font-family="Times,serif" font-size="14.00">destroy</text>
<text text-anchor="start" x="178" y="-553.3" font-family="Times,serif" font-size="14.00">edit</text>
<text text-anchor="start" x="178" y="-538.3" font-family="Times,serif" font-size="14.00">index</text>
<text text-anchor="start" x="178" y="-523.3" font-family="Times,serif" font-size="14.00">new</text>
<text text-anchor="start" x="178" y="-508.3" font-family="Times,serif" font-size="14.00">show</text>
<text text-anchor="start" x="178" y="-493.3" font-family="Times,serif" font-size="14.00">update</text>
<polyline fill="none" stroke="black" points="170,-485.5 296,-485.5 "/>
<polyline fill="none" stroke="black" points="170,-461.5 296,-461.5 "/>
<text text-anchor="start" x="178" y="-446.3" font-family="Times,serif" font-size="14.00">_layout</text>
<text text-anchor="start" x="178" y="-431.3" font-family="Times,serif" font-size="14.00">question_params</text>
<text text-anchor="start" x="178" y="-416.3" font-family="Times,serif" font-size="14.00">set_question</text>
</g>
<!-- ContactsController -->
<g id="node7" class="node"><title>ContactsController</title>
<path fill="none" stroke="black" d="M403,-442.5C403,-442.5 498,-442.5 498,-442.5 504,-442.5 510,-448.5 510,-454.5 510,-454.5 510,-643.5 510,-643.5 510,-649.5 504,-655.5 498,-655.5 498,-655.5 403,-655.5 403,-655.5 397,-655.5 391,-649.5 391,-643.5 391,-643.5 391,-454.5 391,-454.5 391,-448.5 397,-442.5 403,-442.5"/>
<text text-anchor="middle" x="450.5" y="-640.3" font-family="Times,serif" font-size="14.00">ContactsController</text>
<polyline fill="none" stroke="black" points="391,-632.5 510,-632.5 "/>
<text text-anchor="start" x="399" y="-617.3" font-family="Times,serif" font-size="14.00">create</text>
<text text-anchor="start" x="399" y="-602.3" font-family="Times,serif" font-size="14.00">destroy</text>
<text text-anchor="start" x="399" y="-587.3" font-family="Times,serif" font-size="14.00">edit</text>
<text text-anchor="start" x="399" y="-572.3" font-family="Times,serif" font-size="14.00">index</text>
<text text-anchor="start" x="399" y="-557.3" font-family="Times,serif" font-size="14.00">new</text>
<text text-anchor="start" x="399" y="-542.3" font-family="Times,serif" font-size="14.00">show</text>
<text text-anchor="start" x="399" y="-527.3" font-family="Times,serif" font-size="14.00">update</text>
<polyline fill="none" stroke="black" points="391,-519.5 510,-519.5 "/>
<polyline fill="none" stroke="black" points="391,-495.5 510,-495.5 "/>
<text text-anchor="start" x="399" y="-480.3" font-family="Times,serif" font-size="14.00">_layout</text>
<text text-anchor="start" x="399" y="-465.3" font-family="Times,serif" font-size="14.00">contact_params</text>
<text text-anchor="start" x="399" y="-450.3" font-family="Times,serif" font-size="14.00">set_contact</text>
</g>
<!-- ApplicationController -->
<g id="node8" class="node"><title>ApplicationController</title>
<path fill="none" stroke="black" d="M488,-170.5C488,-170.5 658,-170.5 658,-170.5 664,-170.5 670,-176.5 670,-182.5 670,-182.5 670,-251.5 670,-251.5 670,-257.5 664,-263.5 658,-263.5 658,-263.5 488,-263.5 488,-263.5 482,-263.5 476,-257.5 476,-251.5 476,-251.5 476,-182.5 476,-182.5 476,-176.5 482,-170.5 488,-170.5"/>
<text text-anchor="middle" x="573" y="-248.3" font-family="Times,serif" font-size="14.00">ApplicationController</text>
<polyline fill="none" stroke="black" points="476,-240.5 670,-240.5 "/>
<polyline fill="none" stroke="black" points="476,-216.5 670,-216.5 "/>
<text text-anchor="start" x="484" y="-201.3" font-family="Times,serif" font-size="14.00">configure_permitted_parameters</text>
<polyline fill="none" stroke="black" points="476,-193.5 670,-193.5 "/>
<text text-anchor="start" x="484" y="-178.3" font-family="Times,serif" font-size="14.00">_layout</text>
</g>
<!-- HomeController -->
<g id="node9" class="node"><title>HomeController</title>
<path fill="none" stroke="black" d="M488,-306.5C488,-306.5 570,-306.5 570,-306.5 576,-306.5 582,-312.5 582,-318.5 582,-318.5 582,-402.5 582,-402.5 582,-408.5 576,-414.5 570,-414.5 570,-414.5 488,-414.5 488,-414.5 482,-414.5 476,-408.5 476,-402.5 476,-402.5 476,-318.5 476,-318.5 476,-312.5 482,-306.5 488,-306.5"/>
<text text-anchor="middle" x="529" y="-399.3" font-family="Times,serif" font-size="14.00">HomeController</text>
<polyline fill="none" stroke="black" points="476,-391.5 582,-391.5 "/>
<text text-anchor="start" x="484" y="-376.3" font-family="Times,serif" font-size="14.00">about</text>
<text text-anchor="start" x="484" y="-361.3" font-family="Times,serif" font-size="14.00">index</text>
<polyline fill="none" stroke="black" points="476,-353.5 582,-353.5 "/>
<polyline fill="none" stroke="black" points="476,-329.5 582,-329.5 "/>
<text text-anchor="start" x="484" y="-314.3" font-family="Times,serif" font-size="14.00">_layout</text>
</g>
<!-- UnitsController -->
<g id="node10" class="node"><title>UnitsController</title>
<path fill="none" stroke="black" d="M46,-459.5C46,-459.5 123,-459.5 123,-459.5 129,-459.5 135,-465.5 135,-471.5 135,-471.5 135,-675.5 135,-675.5 135,-681.5 129,-687.5 123,-687.5 123,-687.5 46,-687.5 46,-687.5 40,-687.5 34,-681.5 34,-675.5 34,-675.5 34,-471.5 34,-471.5 34,-465.5 40,-459.5 46,-459.5"/>
<text text-anchor="middle" x="84.5" y="-672.3" font-family="Times,serif" font-size="14.00">UnitsController</text>
<polyline fill="none" stroke="black" points="34,-664.5 135,-664.5 "/>
<text text-anchor="start" x="42" y="-649.3" font-family="Times,serif" font-size="14.00">create</text>
<text text-anchor="start" x="42" y="-634.3" font-family="Times,serif" font-size="14.00">destroy</text>
<text text-anchor="start" x="42" y="-619.3" font-family="Times,serif" font-size="14.00">edit</text>
<text text-anchor="start" x="42" y="-604.3" font-family="Times,serif" font-size="14.00">index</text>
<text text-anchor="start" x="42" y="-589.3" font-family="Times,serif" font-size="14.00">new</text>
<text text-anchor="start" x="42" y="-574.3" font-family="Times,serif" font-size="14.00">show</text>
<text text-anchor="start" x="42" y="-559.3" font-family="Times,serif" font-size="14.00">update</text>
<polyline fill="none" stroke="black" points="34,-551.5 135,-551.5 "/>
<polyline fill="none" stroke="black" points="34,-527.5 135,-527.5 "/>
<text text-anchor="start" x="42" y="-512.3" font-family="Times,serif" font-size="14.00">_layout</text>
<text text-anchor="start" x="42" y="-497.3" font-family="Times,serif" font-size="14.00">find_course</text>
<text text-anchor="start" x="42" y="-482.3" font-family="Times,serif" font-size="14.00">find_unit</text>
<text text-anchor="start" x="42" y="-467.3" font-family="Times,serif" font-size="14.00">unit_params</text>
</g>
<!-- ProfilesController -->
<g id="node11" class="node"><title>ProfilesController</title>
<path fill="none" stroke="black" d="M12,-204.5C12,-204.5 102,-204.5 102,-204.5 108,-204.5 114,-210.5 114,-216.5 114,-216.5 114,-405.5 114,-405.5 114,-411.5 108,-417.5 102,-417.5 102,-417.5 12,-417.5 12,-417.5 6,-417.5 0,-411.5 0,-405.5 0,-405.5 0,-216.5 0,-216.5 0,-210.5 6,-204.5 12,-204.5"/>
<text text-anchor="middle" x="57" y="-402.3" font-family="Times,serif" font-size="14.00">ProfilesController</text>
<polyline fill="none" stroke="black" points="0,-394.5 114,-394.5 "/>
<text text-anchor="start" x="8" y="-379.3" font-family="Times,serif" font-size="14.00">create</text>
<text text-anchor="start" x="8" y="-364.3" font-family="Times,serif" font-size="14.00">destroy</text>
<text text-anchor="start" x="8" y="-349.3" font-family="Times,serif" font-size="14.00">edit</text>
<text text-anchor="start" x="8" y="-334.3" font-family="Times,serif" font-size="14.00">index</text>
<text text-anchor="start" x="8" y="-319.3" font-family="Times,serif" font-size="14.00">new</text>
<text text-anchor="start" x="8" y="-304.3" font-family="Times,serif" font-size="14.00">show</text>
<text text-anchor="start" x="8" y="-289.3" font-family="Times,serif" font-size="14.00">update</text>
<polyline fill="none" stroke="black" points="0,-281.5 114,-281.5 "/>
<polyline fill="none" stroke="black" points="0,-257.5 114,-257.5 "/>
<text text-anchor="start" x="8" y="-242.3" font-family="Times,serif" font-size="14.00">_layout</text>
<text text-anchor="start" x="8" y="-227.3" font-family="Times,serif" font-size="14.00">profile_params</text>
<text text-anchor="start" x="8" y="-212.3" font-family="Times,serif" font-size="14.00">set_profile</text>
</g>
</g>
</svg>
