<?xml version="1.0" encoding="UTF-8" standalone="no"?>
<!DOCTYPE svg PUBLIC "-//W3C//DTD SVG 1.1//EN"
 "http://www.w3.org/Graphics/SVG/1.1/DTD/svg11.dtd">
<!-- Generated by graphviz version 2.36.0 (20140111.2315)
 -->
<!-- Title: models_diagram Pages: 1 -->
<svg width="1027pt" height="248pt"
 viewBox="0.00 0.00 1027.00 248.00" xmlns="http://www.w3.org/2000/svg" xmlns:xlink="http://www.w3.org/1999/xlink">
<g id="graph0" class="graph" transform="scale(1 1) rotate(0) translate(4 244)">
<title>models_diagram</title>
<polygon fill="none" stroke="none" points="-4,4 -4,-244 1023,-244 1023,4 -4,4"/>
<!-- _diagram_info -->
<g id="node1" class="node"><title>_diagram_info</title>
<text text-anchor="start" x="35" y="-225.6" font-family="Times,serif" font-size="13.00">Models diagram</text>
<text text-anchor="start" x="35" y="-211.6" font-family="Times,serif" font-size="13.00">Date: Jun 01 2016 &#45; 10:45</text>
<text text-anchor="start" x="35" y="-197.6" font-family="Times,serif" font-size="13.00">Migration version: 20160531130543</text>
<text text-anchor="start" x="35" y="-183.6" font-family="Times,serif" font-size="13.00">Generated by RailRoady 1.4.2</text>
<text text-anchor="start" x="35" y="-169.6" font-family="Times,serif" font-size="13.00">http://railroady.prestonlee.com</text>
</g>
<!-- Profile -->
<g id="node2" class="node"><title>Profile</title>
<ellipse fill="none" stroke="black" cx="34" cy="-106" rx="34.1708" ry="18"/>
<text text-anchor="middle" x="34" y="-102.3" font-family="Times,serif" font-size="14.00">Profile</text>
</g>
<!-- Event -->
<g id="node3" class="node"><title>Event</title>
<ellipse fill="none" stroke="black" cx="362" cy="-201" rx="31.2965" ry="18"/>
<text text-anchor="middle" x="362" y="-197.3" font-family="Times,serif" font-size="14.00">Event</text>
</g>
<!-- Course -->
<g id="node4" class="node"><title>Course</title>
<ellipse fill="none" stroke="black" cx="183" cy="-106" rx="35.6194" ry="18"/>
<text text-anchor="middle" x="183" y="-102.3" font-family="Times,serif" font-size="14.00">Course</text>
</g>
<!-- Unit -->
<g id="node6" class="node"><title>Unit</title>
<ellipse fill="none" stroke="black" cx="37" cy="-18" rx="27" ry="18"/>
<text text-anchor="middle" x="37" y="-14.3" font-family="Times,serif" font-size="14.00">Unit</text>
</g>
<!-- Course&#45;&gt;Unit -->
<g id="edge3" class="edge"><title>Course&#45;&gt;Unit</title>
<path fill="none" stroke="#d68126" d="M156.713,-86.1531C142.316,-76.1415 123.992,-63.8955 107,-54 99.6589,-49.7249 82.7877,-41.2754 67.4482,-33.7495"/>
<ellipse fill="none" stroke="#d68126" cx="160.166" cy="-88.5729" rx="4.00002" ry="4.00002"/>
<polygon fill="#d68126" stroke="#d68126" points="67.1792,-33.6182 60.1693,-25.1853 62.6866,-31.4234 58.194,-29.2286 58.194,-29.2286 58.194,-29.2286 62.6866,-31.4234 56.2187,-33.2719 67.1792,-33.6182 67.1792,-33.6182"/>
</g>
<!-- ActsAsVotable::Vote -->
<g id="node14" class="node"><title>ActsAsVotable::Vote</title>
<ellipse fill="none" stroke="black" cx="286" cy="-18" rx="86.1637" ry="18"/>
<text text-anchor="middle" x="286" y="-14.3" font-family="Times,serif" font-size="14.00">ActsAsVotable::Vote</text>
</g>
<!-- Course&#45;&gt;ActsAsVotable::Vote -->
<g id="edge1" class="edge"><title>Course&#45;&gt;ActsAsVotable::Vote</title>
<path fill="none" stroke="#e9718e" d="M196.794,-81.4386C203.048,-72.108 211.051,-61.7758 220,-54 226.195,-48.6167 233.361,-43.7562 240.638,-39.4889"/>
<ellipse fill="none" stroke="#e9718e" cx="194.53" cy="-84.9561" rx="4.00002" ry="4.00002"/>
<polygon fill="#e9718e" stroke="#e9718e" points="241.095,-39.2368 252.025,-38.3465 245.473,-36.8216 249.851,-34.4063 249.851,-34.4063 249.851,-34.4063 245.473,-36.8216 247.677,-30.4661 241.095,-39.2368 241.095,-39.2368"/>
<text text-anchor="middle" x="246" y="-58.3" font-family="Times,serif" font-size="14.00">votes_for</text>
</g>
<!-- Impression -->
<g id="node15" class="node"><title>Impression</title>
<ellipse fill="none" stroke="black" cx="132" cy="-18" rx="50.0684" ry="18"/>
<text text-anchor="middle" x="132" y="-14.3" font-family="Times,serif" font-size="14.00">Impression</text>
</g>
<!-- Course&#45;&gt;Impression -->
<g id="edge2" class="edge"><title>Course&#45;&gt;Impression</title>
<path fill="none" stroke="#5f4608" d="M168.919,-81.2557C162.171,-69.877 154.079,-56.2313 147.193,-44.619"/>
<ellipse fill="none" stroke="#5f4608" cx="171.126" cy="-84.9778" rx="4.00002" ry="4.00002"/>
<polygon fill="#5f4608" stroke="#5f4608" points="147.078,-44.4255 145.848,-33.5288 144.528,-40.1248 141.977,-35.8242 141.977,-35.8242 141.977,-35.8242 144.528,-40.1248 138.107,-38.1196 147.078,-44.4255 147.078,-44.4255"/>
</g>
<!-- Contact -->
<g id="node5" class="node"><title>Contact</title>
<ellipse fill="none" stroke="black" cx="450" cy="-201" rx="38.0212" ry="18"/>
<text text-anchor="middle" x="450" y="-197.3" font-family="Times,serif" font-size="14.00">Contact</text>
</g>
<!-- Comment -->
<g id="node7" class="node"><title>Comment</title>
<ellipse fill="none" stroke="black" cx="437" cy="-18" rx="46.2191" ry="18"/>
<text text-anchor="middle" x="437" y="-14.3" font-family="Times,serif" font-size="14.00">Comment</text>
</g>
<!-- Ckeditor::Picture -->
<g id="node8" class="node"><title>Ckeditor::Picture</title>
<ellipse fill="none" stroke="black" cx="578" cy="-201" rx="71.2405" ry="18"/>
<text text-anchor="middle" x="578" y="-197.3" font-family="Times,serif" font-size="14.00">Ckeditor::Picture</text>
</g>
<!-- Ckeditor::AttachmentFile -->
<g id="node9" class="node"><title>Ckeditor::AttachmentFile</title>
<ellipse fill="none" stroke="black" cx="769" cy="-201" rx="101.087" ry="18"/>
<text text-anchor="middle" x="769" y="-197.3" font-family="Times,serif" font-size="14.00">Ckeditor::AttachmentFile</text>
</g>
<!-- Ckeditor::Asset -->
<g id="node10" class="node"><title>Ckeditor::Asset</title>
<ellipse fill="none" stroke="black" cx="954" cy="-201" rx="65.4659" ry="18"/>
<text text-anchor="middle" x="954" y="-197.3" font-family="Times,serif" font-size="14.00">Ckeditor::Asset</text>
</g>
<!-- Visit -->
<g id="node11" class="node"><title>Visit</title>
<ellipse fill="none" stroke="black" cx="537" cy="-106" rx="27.4223" ry="18"/>
<text text-anchor="middle" x="537" y="-102.3" font-family="Times,serif" font-size="14.00">Visit</text>
</g>
<!-- Ahoy::Event -->
<g id="node16" class="node"><title>Ahoy::Event</title>
<ellipse fill="none" stroke="black" cx="557" cy="-18" rx="55.3436" ry="18"/>
<text text-anchor="middle" x="557" y="-14.3" font-family="Times,serif" font-size="14.00">Ahoy::Event</text>
</g>
<!-- Visit&#45;&gt;Ahoy::Event -->
<g id="edge4" class="edge"><title>Visit&#45;&gt;Ahoy::Event</title>
<path fill="none" stroke="#a925c2" d="M542.791,-80.0971C545.289,-69.3589 548.214,-56.7789 550.759,-45.8343"/>
<ellipse fill="none" stroke="#a925c2" cx="541.857" cy="-84.1131" rx="4.00001" ry="4.00001"/>
<polygon fill="#a925c2" stroke="#a925c2" points="550.792,-45.6956 557.44,-36.9749 551.924,-40.8256 553.057,-35.9555 553.057,-35.9555 553.057,-35.9555 551.924,-40.8256 548.674,-34.9362 550.792,-45.6956 550.792,-45.6956"/>
<text text-anchor="middle" x="582" y="-58.3" font-family="Times,serif" font-size="14.00">ahoy_events</text>
</g>
<!-- User -->
<g id="node12" class="node"><title>User</title>
<ellipse fill="none" stroke="black" cx="286" cy="-201" rx="26.949" ry="18"/>
<text text-anchor="middle" x="286" y="-197.3" font-family="Times,serif" font-size="14.00">User</text>
</g>
<!-- User&#45;&gt;Profile -->
<g id="edge11" class="edge"><title>User&#45;&gt;Profile</title>
<path fill="none" stroke="#b7fec6" d="M269.744,-178.259C263.913,-171.984 256.824,-165.809 249,-162 181.879,-129.324 151.27,-171.831 82,-144 72.5419,-140.2 63.3684,-133.978 55.6185,-127.71"/>
<ellipse fill="none" stroke="#b7fec6" cx="272.517" cy="-181.46" rx="4.00002" ry="4.00002"/>
<ellipse fill="#b7fec6" stroke="#b7fec6" cx="52.5174" cy="-125.077" rx="4.00002" ry="4.00002"/>
</g>
<!-- User&#45;&gt;Course -->
<g id="edge10" class="edge"><title>User&#45;&gt;Course</title>
<path fill="none" stroke="#fa3584" d="M266.536,-179.23C260.987,-173.525 254.856,-167.42 249,-162 236.37,-150.311 221.719,-137.987 209.434,-127.974"/>
<ellipse fill="none" stroke="#fa3584" cx="269.516" cy="-182.328" rx="4.00002" ry="4.00002"/>
<polygon fill="#fa3584" stroke="#fa3584" points="209.137,-127.734 204.189,-117.948 205.249,-124.591 201.36,-121.448 201.36,-121.448 201.36,-121.448 205.249,-124.591 198.531,-124.947 209.137,-127.734 209.137,-127.734"/>
</g>
<!-- User&#45;&gt;Unit -->
<g id="edge9" class="edge"><title>User&#45;&gt;Unit</title>
<path fill="none" stroke="#052309" d="M268.62,-178.675C262.876,-172.645 256.119,-166.506 249,-162 204.94,-134.113 181.975,-152.021 138,-124 103.803,-102.21 72.8287,-66.5346 54.4509,-42.9096"/>
<ellipse fill="none" stroke="#052309" cx="271.314" cy="-181.642" rx="4.00002" ry="4.00002"/>
<polygon fill="#052309" stroke="#052309" points="54.3303,-42.7514 51.846,-32.0706 51.2988,-38.7751 48.2674,-34.7989 48.2674,-34.7989 48.2674,-34.7989 51.2988,-38.7751 44.6888,-37.5272 54.3303,-42.7514 54.3303,-42.7514"/>
</g>
<!-- User&#45;&gt;Comment -->
<g id="edge7" class="edge"><title>User&#45;&gt;Comment</title>
<path fill="none" stroke="#70cd5f" d="M303.231,-178.357C321.377,-155.67 350.882,-119.069 377,-88 389.689,-72.9055 404.191,-56.2137 415.758,-43.0287"/>
<ellipse fill="none" stroke="#70cd5f" cx="300.7" cy="-181.525" rx="4.00002" ry="4.00002"/>
<polygon fill="#70cd5f" stroke="#70cd5f" points="415.935,-42.8273 425.918,-38.2896 419.237,-39.0726 422.539,-35.3179 422.539,-35.3179 422.539,-35.3179 419.237,-39.0726 419.16,-32.3462 415.935,-42.8273 415.935,-42.8273"/>
</g>
<!-- User&#45;&gt;Visit -->
<g id="edge8" class="edge"><title>User&#45;&gt;Visit</title>
<path fill="none" stroke="#2291e6" d="M302.927,-177.878C308.431,-171.959 314.954,-166.08 322,-162 337.531,-153.005 461.661,-128.637 479,-124 486.769,-121.923 495.085,-119.565 502.923,-117.282"/>
<ellipse fill="none" stroke="#2291e6" cx="300.01" cy="-181.219" rx="4.00002" ry="4.00002"/>
<polygon fill="#2291e6" stroke="#2291e6" points="502.927,-117.281 513.791,-118.773 507.724,-115.868 512.52,-114.456 512.52,-114.456 512.52,-114.456 507.724,-115.868 511.249,-110.139 502.927,-117.281 502.927,-117.281"/>
</g>
<!-- Question -->
<g id="node13" class="node"><title>Question</title>
<ellipse fill="none" stroke="black" cx="428" cy="-106" rx="42.3701" ry="18"/>
<text text-anchor="middle" x="428" y="-102.3" font-family="Times,serif" font-size="14.00">Question</text>
</g>
<!-- User&#45;&gt;Question -->
<g id="edge6" class="edge"><title>User&#45;&gt;Question</title>
<path fill="none" stroke="#b137bc" d="M303.277,-178.439C308.79,-172.535 315.23,-166.524 322,-162 340.598,-149.572 348.986,-153.989 369,-144 378.838,-139.09 389.131,-132.999 398.315,-127.187"/>
<ellipse fill="none" stroke="#b137bc" cx="300.345" cy="-181.738" rx="4.00002" ry="4.00002"/>
<polygon fill="#b137bc" stroke="#b137bc" points="398.332,-127.176 409.173,-125.525 402.53,-124.461 406.729,-121.746 406.729,-121.746 406.729,-121.746 402.53,-124.461 404.286,-117.967 398.332,-127.176 398.332,-127.176"/>
</g>
<!-- User&#45;&gt;ActsAsVotable::Vote -->
<g id="edge5" class="edge"><title>User&#45;&gt;ActsAsVotable::Vote</title>
<path fill="none" stroke="#06606b" d="M286,-174.611C286,-140.823 286,-81.3028 286,-46.4866"/>
<ellipse fill="none" stroke="#06606b" cx="286" cy="-178.972" rx="4" ry="4"/>
<polygon fill="#06606b" stroke="#06606b" points="286,-46.1146 290.5,-36.1146 286,-41.1146 286,-36.1146 286,-36.1146 286,-36.1146 286,-41.1146 281.5,-36.1147 286,-46.1146 286,-46.1146"/>
<text text-anchor="middle" x="300.5" y="-102.3" font-family="Times,serif" font-size="14.00">votes</text>
</g>
<!-- Question&#45;&gt;Comment -->
<g id="edge12" class="edge"><title>Question&#45;&gt;Comment</title>
<path fill="none" stroke="#72d930" d="M430.642,-79.7559C431.74,-69.2586 433.018,-57.0486 434.139,-46.3396"/>
<ellipse fill="none" stroke="#72d930" cx="430.194" cy="-84.0309" rx="4" ry="4"/>
<polygon fill="#72d930" stroke="#72d930" points="434.154,-46.1956 439.67,-36.7183 434.674,-41.2227 435.195,-36.2499 435.195,-36.2499 435.195,-36.2499 434.674,-41.2227 430.719,-35.7815 434.154,-46.1956 434.154,-46.1956"/>
</g>
</g>
</svg>
