<?xml version="1.0" encoding="UTF-8" standalone="no"?>
<!DOCTYPE svg PUBLIC "-//W3C//DTD SVG 1.1//EN"
 "http://www.w3.org/Graphics/SVG/1.1/DTD/svg11.dtd">
<!-- Generated by graphviz version 2.36.0 (20140111.2315)
 -->
<!-- Title: models_diagram Pages: 1 -->
<svg width="1318pt" height="1050pt"
 viewBox="0.00 0.00 1318.00 1050.00" xmlns="http://www.w3.org/2000/svg" xmlns:xlink="http://www.w3.org/1999/xlink">
<g id="graph0" class="graph" transform="scale(1 1) rotate(0) translate(4 1046)">
<title>models_diagram</title>
<polygon fill="none" stroke="none" points="-4,4 -4,-1046 1314,-1046 1314,4 -4,4"/>
<!-- _diagram_info -->
<g id="node1" class="node"><title>_diagram_info</title>
<text text-anchor="start" x="35" y="-900.6" font-family="Times,serif" font-size="13.00">Models diagram</text>
<text text-anchor="start" x="35" y="-886.6" font-family="Times,serif" font-size="13.00">Date: Jun 01 2016 &#45; 10:45</text>
<text text-anchor="start" x="35" y="-872.6" font-family="Times,serif" font-size="13.00">Migration version: 20160531130543</text>
<text text-anchor="start" x="35" y="-858.6" font-family="Times,serif" font-size="13.00">Generated by RailRoady 1.4.2</text>
<text text-anchor="start" x="35" y="-844.6" font-family="Times,serif" font-size="13.00">http://railroady.prestonlee.com</text>
</g>
<!-- Profile -->
<g id="node2" class="node"><title>Profile</title>
<path fill="none" stroke="black" d="M11.5,-362.5C11.5,-362.5 118.5,-362.5 118.5,-362.5 124.5,-362.5 130.5,-368.5 130.5,-374.5 130.5,-374.5 130.5,-531.5 130.5,-531.5 130.5,-537.5 124.5,-543.5 118.5,-543.5 118.5,-543.5 11.5,-543.5 11.5,-543.5 5.5,-543.5 -0.5,-537.5 -0.5,-531.5 -0.5,-531.5 -0.5,-374.5 -0.5,-374.5 -0.5,-368.5 5.5,-362.5 11.5,-362.5"/>
<text text-anchor="middle" x="65" y="-528.3" font-family="Times,serif" font-size="14.00">Profile</text>
<polyline fill="none" stroke="black" points="-0.5,-520.5 130.5,-520.5 "/>
<text text-anchor="start" x="7.5" y="-505.3" font-family="Times,serif" font-size="14.00">id :INTEGER</text>
<text text-anchor="start" x="7.5" y="-490.3" font-family="Times,serif" font-size="14.00">name :varchar</text>
<text text-anchor="start" x="7.5" y="-475.3" font-family="Times,serif" font-size="14.00">address :text</text>
<text text-anchor="start" x="7.5" y="-460.3" font-family="Times,serif" font-size="14.00">dob :date</text>
<text text-anchor="start" x="7.5" y="-445.3" font-family="Times,serif" font-size="14.00">mob :varchar</text>
<text text-anchor="start" x="7.5" y="-430.3" font-family="Times,serif" font-size="14.00">image :varchar</text>
<text text-anchor="start" x="7.5" y="-415.3" font-family="Times,serif" font-size="14.00">user_id :integer</text>
<text text-anchor="start" x="7.5" y="-400.3" font-family="Times,serif" font-size="14.00">created_at :datetime</text>
<text text-anchor="start" x="7.5" y="-385.3" font-family="Times,serif" font-size="14.00">updated_at :datetime</text>
<text text-anchor="start" x="7.5" y="-370.3" font-family="Times,serif" font-size="14.00">cover :varchar</text>
</g>
<!-- Event -->
<g id="node3" class="node"><title>Event</title>
<path fill="none" stroke="black" d="M489.5,-808C489.5,-808 596.5,-808 596.5,-808 602.5,-808 608.5,-814 608.5,-820 608.5,-820 608.5,-932 608.5,-932 608.5,-938 602.5,-944 596.5,-944 596.5,-944 489.5,-944 489.5,-944 483.5,-944 477.5,-938 477.5,-932 477.5,-932 477.5,-820 477.5,-820 477.5,-814 483.5,-808 489.5,-808"/>
<text text-anchor="middle" x="543" y="-928.8" font-family="Times,serif" font-size="14.00">Event</text>
<polyline fill="none" stroke="black" points="477.5,-921 608.5,-921 "/>
<text text-anchor="start" x="485.5" y="-905.8" font-family="Times,serif" font-size="14.00">id :INTEGER</text>
<text text-anchor="start" x="485.5" y="-890.8" font-family="Times,serif" font-size="14.00">user_id :integer</text>
<text text-anchor="start" x="485.5" y="-875.8" font-family="Times,serif" font-size="14.00">name :varchar</text>
<text text-anchor="start" x="485.5" y="-860.8" font-family="Times,serif" font-size="14.00">start_at :datetime</text>
<text text-anchor="start" x="485.5" y="-845.8" font-family="Times,serif" font-size="14.00">end_at :datetime</text>
<text text-anchor="start" x="485.5" y="-830.8" font-family="Times,serif" font-size="14.00">created_at :datetime</text>
<text text-anchor="start" x="485.5" y="-815.8" font-family="Times,serif" font-size="14.00">updated_at :datetime</text>
</g>
<!-- Course -->
<g id="node4" class="node"><title>Course</title>
<path fill="none" stroke="black" d="M201.5,-377.5C201.5,-377.5 308.5,-377.5 308.5,-377.5 314.5,-377.5 320.5,-383.5 320.5,-389.5 320.5,-389.5 320.5,-516.5 320.5,-516.5 320.5,-522.5 314.5,-528.5 308.5,-528.5 308.5,-528.5 201.5,-528.5 201.5,-528.5 195.5,-528.5 189.5,-522.5 189.5,-516.5 189.5,-516.5 189.5,-389.5 189.5,-389.5 189.5,-383.5 195.5,-377.5 201.5,-377.5"/>
<text text-anchor="middle" x="255" y="-513.3" font-family="Times,serif" font-size="14.00">Course</text>
<polyline fill="none" stroke="black" points="189.5,-505.5 320.5,-505.5 "/>
<text text-anchor="start" x="197.5" y="-490.3" font-family="Times,serif" font-size="14.00">id :INTEGER</text>
<text text-anchor="start" x="197.5" y="-475.3" font-family="Times,serif" font-size="14.00">name :varchar</text>
<text text-anchor="start" x="197.5" y="-460.3" font-family="Times,serif" font-size="14.00">description :text</text>
<text text-anchor="start" x="197.5" y="-445.3" font-family="Times,serif" font-size="14.00">image :varchar</text>
<text text-anchor="start" x="197.5" y="-430.3" font-family="Times,serif" font-size="14.00">user_id :integer</text>
<text text-anchor="start" x="197.5" y="-415.3" font-family="Times,serif" font-size="14.00">created_at :datetime</text>
<text text-anchor="start" x="197.5" y="-400.3" font-family="Times,serif" font-size="14.00">updated_at :datetime</text>
<text text-anchor="start" x="197.5" y="-385.3" font-family="Times,serif" font-size="14.00">visit_id :integer</text>
</g>
<!-- Unit -->
<g id="node6" class="node"><title>Unit</title>
<path fill="none" stroke="black" d="M20.5,-0.5C20.5,-0.5 127.5,-0.5 127.5,-0.5 133.5,-0.5 139.5,-6.5 139.5,-12.5 139.5,-12.5 139.5,-169.5 139.5,-169.5 139.5,-175.5 133.5,-181.5 127.5,-181.5 127.5,-181.5 20.5,-181.5 20.5,-181.5 14.5,-181.5 8.5,-175.5 8.5,-169.5 8.5,-169.5 8.5,-12.5 8.5,-12.5 8.5,-6.5 14.5,-0.5 20.5,-0.5"/>
<text text-anchor="middle" x="74" y="-166.3" font-family="Times,serif" font-size="14.00">Unit</text>
<polyline fill="none" stroke="black" points="8.5,-158.5 139.5,-158.5 "/>
<text text-anchor="start" x="16.5" y="-143.3" font-family="Times,serif" font-size="14.00">id :INTEGER</text>
<text text-anchor="start" x="16.5" y="-128.3" font-family="Times,serif" font-size="14.00">name :varchar</text>
<text text-anchor="start" x="16.5" y="-113.3" font-family="Times,serif" font-size="14.00">pdf :varchar</text>
<text text-anchor="start" x="16.5" y="-98.3" font-family="Times,serif" font-size="14.00">youtube_url :varchar</text>
<text text-anchor="start" x="16.5" y="-83.3" font-family="Times,serif" font-size="14.00">rich_text :text</text>
<text text-anchor="start" x="16.5" y="-68.3" font-family="Times,serif" font-size="14.00">video :varchar</text>
<text text-anchor="start" x="16.5" y="-53.3" font-family="Times,serif" font-size="14.00">course_id :integer</text>
<text text-anchor="start" x="16.5" y="-38.3" font-family="Times,serif" font-size="14.00">created_at :datetime</text>
<text text-anchor="start" x="16.5" y="-23.3" font-family="Times,serif" font-size="14.00">updated_at :datetime</text>
<text text-anchor="start" x="16.5" y="-8.3" font-family="Times,serif" font-size="14.00">user_id :integer</text>
</g>
<!-- Course&#45;&gt;Unit -->
<g id="edge3" class="edge"><title>Course&#45;&gt;Unit</title>
<path fill="none" stroke="#2a74b4" d="M238.967,-369.374C226.164,-317.564 204.521,-251.143 170,-200 163.123,-189.811 157.632,-190.752 149,-182 148.215,-181.204 147.428,-180.4 146.641,-179.589"/>
<ellipse fill="none" stroke="#2a74b4" cx="239.928" cy="-373.345" rx="4.00001" ry="4.00001"/>
<polygon fill="#2a74b4" stroke="#2a74b4" points="146.446,-179.384 142.82,-169.035 143.002,-175.759 139.558,-172.135 139.558,-172.135 139.558,-172.135 143.002,-175.759 136.296,-175.234 146.446,-179.384 146.446,-179.384"/>
</g>
<!-- ActsAsVotable::Vote -->
<g id="node14" class="node"><title>ActsAsVotable::Vote</title>
<ellipse fill="none" stroke="black" cx="362" cy="-91" rx="86.1637" ry="18"/>
<text text-anchor="middle" x="362" y="-87.3" font-family="Times,serif" font-size="14.00">ActsAsVotable::Vote</text>
</g>
<!-- Course&#45;&gt;ActsAsVotable::Vote -->
<g id="edge1" class="edge"><title>Course&#45;&gt;ActsAsVotable::Vote</title>
<path fill="none" stroke="#079b47" d="M258.767,-369.194C263.164,-318.939 272.637,-254.247 293,-200 304.546,-169.242 325.727,-138.036 341.588,-117.132"/>
<ellipse fill="none" stroke="#079b47" cx="258.412" cy="-373.463" rx="4" ry="4"/>
<polygon fill="#079b47" stroke="#079b47" points="341.68,-117.013 351.36,-111.861 344.741,-113.059 347.802,-109.106 347.802,-109.106 347.802,-109.106 344.741,-113.059 344.244,-106.351 341.68,-117.013 341.68,-117.013"/>
<text text-anchor="middle" x="319" y="-204.3" font-family="Times,serif" font-size="14.00">votes_for</text>
</g>
<!-- Impression -->
<g id="node15" class="node"><title>Impression</title>
<ellipse fill="none" stroke="black" cx="208" cy="-91" rx="50.0684" ry="18"/>
<text text-anchor="middle" x="208" y="-87.3" font-family="Times,serif" font-size="14.00">Impression</text>
</g>
<!-- Course&#45;&gt;Impression -->
<g id="edge2" class="edge"><title>Course&#45;&gt;Impression</title>
<path fill="none" stroke="#f258a5" d="M244.195,-369.236C233.731,-289.09 218.47,-172.195 211.594,-119.53"/>
<ellipse fill="none" stroke="#f258a5" cx="244.744" cy="-373.441" rx="4.00001" ry="4.00001"/>
<polygon fill="#f258a5" stroke="#f258a5" points="211.554,-119.219 214.721,-108.72 210.906,-114.261 210.259,-109.303 210.259,-109.303 210.259,-109.303 210.906,-114.261 205.797,-109.885 211.554,-119.219 211.554,-119.219"/>
</g>
<!-- Contact -->
<g id="node5" class="node"><title>Contact</title>
<path fill="none" stroke="black" d="M638.5,-808C638.5,-808 745.5,-808 745.5,-808 751.5,-808 757.5,-814 757.5,-820 757.5,-820 757.5,-932 757.5,-932 757.5,-938 751.5,-944 745.5,-944 745.5,-944 638.5,-944 638.5,-944 632.5,-944 626.5,-938 626.5,-932 626.5,-932 626.5,-820 626.5,-820 626.5,-814 632.5,-808 638.5,-808"/>
<text text-anchor="middle" x="692" y="-928.8" font-family="Times,serif" font-size="14.00">Contact</text>
<polyline fill="none" stroke="black" points="626.5,-921 757.5,-921 "/>
<text text-anchor="start" x="634.5" y="-905.8" font-family="Times,serif" font-size="14.00">id :INTEGER</text>
<text text-anchor="start" x="634.5" y="-890.8" font-family="Times,serif" font-size="14.00">name :varchar</text>
<text text-anchor="start" x="634.5" y="-875.8" font-family="Times,serif" font-size="14.00">email :varchar</text>
<text text-anchor="start" x="634.5" y="-860.8" font-family="Times,serif" font-size="14.00">subject :varchar</text>
<text text-anchor="start" x="634.5" y="-845.8" font-family="Times,serif" font-size="14.00">message :text</text>
<text text-anchor="start" x="634.5" y="-830.8" font-family="Times,serif" font-size="14.00">created_at :datetime</text>
<text text-anchor="start" x="634.5" y="-815.8" font-family="Times,serif" font-size="14.00">updated_at :datetime</text>
</g>
<!-- Comment -->
<g id="node7" class="node"><title>Comment</title>
<path fill="none" stroke="black" d="M478.5,-23C478.5,-23 585.5,-23 585.5,-23 591.5,-23 597.5,-29 597.5,-35 597.5,-35 597.5,-147 597.5,-147 597.5,-153 591.5,-159 585.5,-159 585.5,-159 478.5,-159 478.5,-159 472.5,-159 466.5,-153 466.5,-147 466.5,-147 466.5,-35 466.5,-35 466.5,-29 472.5,-23 478.5,-23"/>
<text text-anchor="middle" x="532" y="-143.8" font-family="Times,serif" font-size="14.00">Comment</text>
<polyline fill="none" stroke="black" points="466.5,-136 597.5,-136 "/>
<text text-anchor="start" x="474.5" y="-120.8" font-family="Times,serif" font-size="14.00">id :INTEGER</text>
<text text-anchor="start" x="474.5" y="-105.8" font-family="Times,serif" font-size="14.00">description :text</text>
<text text-anchor="start" x="474.5" y="-90.8" font-family="Times,serif" font-size="14.00">attachment :varchar</text>
<text text-anchor="start" x="474.5" y="-75.8" font-family="Times,serif" font-size="14.00">user_id :integer</text>
<text text-anchor="start" x="474.5" y="-60.8" font-family="Times,serif" font-size="14.00">question_id :integer</text>
<text text-anchor="start" x="474.5" y="-45.8" font-family="Times,serif" font-size="14.00">created_at :datetime</text>
<text text-anchor="start" x="474.5" y="-30.8" font-family="Times,serif" font-size="14.00">updated_at :datetime</text>
</g>
<!-- Ckeditor::Picture -->
<g id="node8" class="node"><title>Ckeditor::Picture</title>
<path fill="none" stroke="black" d="M788,-778C788,-778 930,-778 930,-778 936,-778 942,-784 942,-790 942,-790 942,-962 942,-962 942,-968 936,-974 930,-974 930,-974 788,-974 788,-974 782,-974 776,-968 776,-962 776,-962 776,-790 776,-790 776,-784 782,-778 788,-778"/>
<text text-anchor="middle" x="859" y="-958.8" font-family="Times,serif" font-size="14.00">Ckeditor::Picture</text>
<polyline fill="none" stroke="black" points="776,-951 942,-951 "/>
<text text-anchor="start" x="784" y="-935.8" font-family="Times,serif" font-size="14.00">id :INTEGER</text>
<text text-anchor="start" x="784" y="-920.8" font-family="Times,serif" font-size="14.00">data_file_name :varchar</text>
<text text-anchor="start" x="784" y="-905.8" font-family="Times,serif" font-size="14.00">data_content_type :varchar</text>
<text text-anchor="start" x="784" y="-890.8" font-family="Times,serif" font-size="14.00">data_file_size :integer</text>
<text text-anchor="start" x="784" y="-875.8" font-family="Times,serif" font-size="14.00">assetable_id :integer</text>
<text text-anchor="start" x="784" y="-860.8" font-family="Times,serif" font-size="14.00">assetable_type :varchar(30)</text>
<text text-anchor="start" x="784" y="-845.8" font-family="Times,serif" font-size="14.00">type :varchar(30)</text>
<text text-anchor="start" x="784" y="-830.8" font-family="Times,serif" font-size="14.00">width :integer</text>
<text text-anchor="start" x="784" y="-815.8" font-family="Times,serif" font-size="14.00">height :integer</text>
<text text-anchor="start" x="784" y="-800.8" font-family="Times,serif" font-size="14.00">created_at :datetime</text>
<text text-anchor="start" x="784" y="-785.8" font-family="Times,serif" font-size="14.00">updated_at :datetime</text>
</g>
<!-- Ckeditor::AttachmentFile -->
<g id="node9" class="node"><title>Ckeditor::AttachmentFile</title>
<path fill="none" stroke="black" d="M972,-778C972,-778 1114,-778 1114,-778 1120,-778 1126,-784 1126,-790 1126,-790 1126,-962 1126,-962 1126,-968 1120,-974 1114,-974 1114,-974 972,-974 972,-974 966,-974 960,-968 960,-962 960,-962 960,-790 960,-790 960,-784 966,-778 972,-778"/>
<text text-anchor="middle" x="1043" y="-958.8" font-family="Times,serif" font-size="14.00">Ckeditor::AttachmentFile</text>
<polyline fill="none" stroke="black" points="960,-951 1126,-951 "/>
<text text-anchor="start" x="968" y="-935.8" font-family="Times,serif" font-size="14.00">id :INTEGER</text>
<text text-anchor="start" x="968" y="-920.8" font-family="Times,serif" font-size="14.00">data_file_name :varchar</text>
<text text-anchor="start" x="968" y="-905.8" font-family="Times,serif" font-size="14.00">data_content_type :varchar</text>
<text text-anchor="start" x="968" y="-890.8" font-family="Times,serif" font-size="14.00">data_file_size :integer</text>
<text text-anchor="start" x="968" y="-875.8" font-family="Times,serif" font-size="14.00">assetable_id :integer</text>
<text text-anchor="start" x="968" y="-860.8" font-family="Times,serif" font-size="14.00">assetable_type :varchar(30)</text>
<text text-anchor="start" x="968" y="-845.8" font-family="Times,serif" font-size="14.00">type :varchar(30)</text>
<text text-anchor="start" x="968" y="-830.8" font-family="Times,serif" font-size="14.00">width :integer</text>
<text text-anchor="start" x="968" y="-815.8" font-family="Times,serif" font-size="14.00">height :integer</text>
<text text-anchor="start" x="968" y="-800.8" font-family="Times,serif" font-size="14.00">created_at :datetime</text>
<text text-anchor="start" x="968" y="-785.8" font-family="Times,serif" font-size="14.00">updated_at :datetime</text>
</g>
<!-- Ckeditor::Asset -->
<g id="node10" class="node"><title>Ckeditor::Asset</title>
<path fill="none" stroke="black" d="M1156,-778C1156,-778 1298,-778 1298,-778 1304,-778 1310,-784 1310,-790 1310,-790 1310,-962 1310,-962 1310,-968 1304,-974 1298,-974 1298,-974 1156,-974 1156,-974 1150,-974 1144,-968 1144,-962 1144,-962 1144,-790 1144,-790 1144,-784 1150,-778 1156,-778"/>
<text text-anchor="middle" x="1227" y="-958.8" font-family="Times,serif" font-size="14.00">Ckeditor::Asset</text>
<polyline fill="none" stroke="black" points="1144,-951 1310,-951 "/>
<text text-anchor="start" x="1152" y="-935.8" font-family="Times,serif" font-size="14.00">id :INTEGER</text>
<text text-anchor="start" x="1152" y="-920.8" font-family="Times,serif" font-size="14.00">data_file_name :varchar</text>
<text text-anchor="start" x="1152" y="-905.8" font-family="Times,serif" font-size="14.00">data_content_type :varchar</text>
<text text-anchor="start" x="1152" y="-890.8" font-family="Times,serif" font-size="14.00">data_file_size :integer</text>
<text text-anchor="start" x="1152" y="-875.8" font-family="Times,serif" font-size="14.00">assetable_id :integer</text>
<text text-anchor="start" x="1152" y="-860.8" font-family="Times,serif" font-size="14.00">assetable_type :varchar(30)</text>
<text text-anchor="start" x="1152" y="-845.8" font-family="Times,serif" font-size="14.00">type :varchar(30)</text>
<text text-anchor="start" x="1152" y="-830.8" font-family="Times,serif" font-size="14.00">width :integer</text>
<text text-anchor="start" x="1152" y="-815.8" font-family="Times,serif" font-size="14.00">height :integer</text>
<text text-anchor="start" x="1152" y="-800.8" font-family="Times,serif" font-size="14.00">created_at :datetime</text>
<text text-anchor="start" x="1152" y="-785.8" font-family="Times,serif" font-size="14.00">updated_at :datetime</text>
</g>
<!-- Visit -->
<g id="node11" class="node"><title>Visit</title>
<path fill="none" stroke="black" d="M606,-235C606,-235 742,-235 742,-235 748,-235 754,-241 754,-247 754,-247 754,-659 754,-659 754,-665 748,-671 742,-671 742,-671 606,-671 606,-671 600,-671 594,-665 594,-659 594,-659 594,-247 594,-247 594,-241 600,-235 606,-235"/>
<text text-anchor="middle" x="674" y="-655.8" font-family="Times,serif" font-size="14.00">Visit</text>
<polyline fill="none" stroke="black" points="594,-648 754,-648 "/>
<text text-anchor="start" x="602" y="-632.8" font-family="Times,serif" font-size="14.00">id :INTEGER</text>
<text text-anchor="start" x="602" y="-617.8" font-family="Times,serif" font-size="14.00">visit_token :varchar</text>
<text text-anchor="start" x="602" y="-602.8" font-family="Times,serif" font-size="14.00">visitor_token :varchar</text>
<text text-anchor="start" x="602" y="-587.8" font-family="Times,serif" font-size="14.00">ip :varchar</text>
<text text-anchor="start" x="602" y="-572.8" font-family="Times,serif" font-size="14.00">user_agent :text</text>
<text text-anchor="start" x="602" y="-557.8" font-family="Times,serif" font-size="14.00">referrer :text</text>
<text text-anchor="start" x="602" y="-542.8" font-family="Times,serif" font-size="14.00">landing_page :text</text>
<text text-anchor="start" x="602" y="-527.8" font-family="Times,serif" font-size="14.00">user_id :integer</text>
<text text-anchor="start" x="602" y="-512.8" font-family="Times,serif" font-size="14.00">referring_domain :varchar</text>
<text text-anchor="start" x="602" y="-497.8" font-family="Times,serif" font-size="14.00">search_keyword :varchar</text>
<text text-anchor="start" x="602" y="-482.8" font-family="Times,serif" font-size="14.00">browser :varchar</text>
<text text-anchor="start" x="602" y="-467.8" font-family="Times,serif" font-size="14.00">os :varchar</text>
<text text-anchor="start" x="602" y="-452.8" font-family="Times,serif" font-size="14.00">device_type :varchar</text>
<text text-anchor="start" x="602" y="-437.8" font-family="Times,serif" font-size="14.00">screen_height :integer</text>
<text text-anchor="start" x="602" y="-422.8" font-family="Times,serif" font-size="14.00">screen_width :integer</text>
<text text-anchor="start" x="602" y="-407.8" font-family="Times,serif" font-size="14.00">country :varchar</text>
<text text-anchor="start" x="602" y="-392.8" font-family="Times,serif" font-size="14.00">region :varchar</text>
<text text-anchor="start" x="602" y="-377.8" font-family="Times,serif" font-size="14.00">city :varchar</text>
<text text-anchor="start" x="602" y="-362.8" font-family="Times,serif" font-size="14.00">postal_code :varchar</text>
<text text-anchor="start" x="602" y="-347.8" font-family="Times,serif" font-size="14.00">latitude :decimal</text>
<text text-anchor="start" x="602" y="-332.8" font-family="Times,serif" font-size="14.00">longitude :decimal</text>
<text text-anchor="start" x="602" y="-317.8" font-family="Times,serif" font-size="14.00">utm_source :varchar</text>
<text text-anchor="start" x="602" y="-302.8" font-family="Times,serif" font-size="14.00">utm_medium :varchar</text>
<text text-anchor="start" x="602" y="-287.8" font-family="Times,serif" font-size="14.00">utm_term :varchar</text>
<text text-anchor="start" x="602" y="-272.8" font-family="Times,serif" font-size="14.00">utm_content :varchar</text>
<text text-anchor="start" x="602" y="-257.8" font-family="Times,serif" font-size="14.00">utm_campaign :varchar</text>
<text text-anchor="start" x="602" y="-242.8" font-family="Times,serif" font-size="14.00">started_at :datetime</text>
</g>
<!-- Ahoy::Event -->
<g id="node16" class="node"><title>Ahoy::Event</title>
<ellipse fill="none" stroke="black" cx="674" cy="-91" rx="55.3436" ry="18"/>
<text text-anchor="middle" x="674" y="-87.3" font-family="Times,serif" font-size="14.00">Ahoy::Event</text>
</g>
<!-- Visit&#45;&gt;Ahoy::Event -->
<g id="edge4" class="edge"><title>Visit&#45;&gt;Ahoy::Event</title>
<path fill="none" stroke="#e0db96" d="M674,-226.522C674,-183.575 674,-144.324 674,-119.449"/>
<ellipse fill="none" stroke="#e0db96" cx="674" cy="-230.799" rx="4" ry="4"/>
<polygon fill="#e0db96" stroke="#e0db96" points="674,-119.385 678.5,-109.385 674,-114.385 674,-109.385 674,-109.385 674,-109.385 674,-114.385 669.5,-109.385 674,-119.385 674,-119.385"/>
<text text-anchor="middle" x="708" y="-204.3" font-family="Times,serif" font-size="14.00">ahoy_events</text>
</g>
<!-- User -->
<g id="node12" class="node"><title>User</title>
<path fill="none" stroke="black" d="M271,-710.5C271,-710.5 447,-710.5 447,-710.5 453,-710.5 459,-716.5 459,-722.5 459,-722.5 459,-1029.5 459,-1029.5 459,-1035.5 453,-1041.5 447,-1041.5 447,-1041.5 271,-1041.5 271,-1041.5 265,-1041.5 259,-1035.5 259,-1029.5 259,-1029.5 259,-722.5 259,-722.5 259,-716.5 265,-710.5 271,-710.5"/>
<text text-anchor="middle" x="359" y="-1026.3" font-family="Times,serif" font-size="14.00">User</text>
<polyline fill="none" stroke="black" points="259,-1018.5 459,-1018.5 "/>
<text text-anchor="start" x="267" y="-1003.3" font-family="Times,serif" font-size="14.00">id :INTEGER</text>
<text text-anchor="start" x="267" y="-988.3" font-family="Times,serif" font-size="14.00">admin :boolean</text>
<text text-anchor="start" x="267" y="-973.3" font-family="Times,serif" font-size="14.00">teacher :boolean</text>
<text text-anchor="start" x="267" y="-958.3" font-family="Times,serif" font-size="14.00">name :varchar</text>
<text text-anchor="start" x="267" y="-943.3" font-family="Times,serif" font-size="14.00">email :varchar</text>
<text text-anchor="start" x="267" y="-928.3" font-family="Times,serif" font-size="14.00">encrypted_password :varchar</text>
<text text-anchor="start" x="267" y="-913.3" font-family="Times,serif" font-size="14.00">reset_password_token :varchar</text>
<text text-anchor="start" x="267" y="-898.3" font-family="Times,serif" font-size="14.00">reset_password_sent_at :datetime</text>
<text text-anchor="start" x="267" y="-883.3" font-family="Times,serif" font-size="14.00">remember_created_at :datetime</text>
<text text-anchor="start" x="267" y="-868.3" font-family="Times,serif" font-size="14.00">sign_in_count :integer</text>
<text text-anchor="start" x="267" y="-853.3" font-family="Times,serif" font-size="14.00">current_sign_in_at :datetime</text>
<text text-anchor="start" x="267" y="-838.3" font-family="Times,serif" font-size="14.00">last_sign_in_at :datetime</text>
<text text-anchor="start" x="267" y="-823.3" font-family="Times,serif" font-size="14.00">current_sign_in_ip :varchar</text>
<text text-anchor="start" x="267" y="-808.3" font-family="Times,serif" font-size="14.00">last_sign_in_ip :varchar</text>
<text text-anchor="start" x="267" y="-793.3" font-family="Times,serif" font-size="14.00">confirmation_token :varchar</text>
<text text-anchor="start" x="267" y="-778.3" font-family="Times,serif" font-size="14.00">confirmed_at :datetime</text>
<text text-anchor="start" x="267" y="-763.3" font-family="Times,serif" font-size="14.00">confirmation_sent_at :datetime</text>
<text text-anchor="start" x="267" y="-748.3" font-family="Times,serif" font-size="14.00">unconfirmed_email :varchar</text>
<text text-anchor="start" x="267" y="-733.3" font-family="Times,serif" font-size="14.00">created_at :datetime</text>
<text text-anchor="start" x="267" y="-718.3" font-family="Times,serif" font-size="14.00">updated_at :datetime</text>
</g>
<!-- User&#45;&gt;Profile -->
<g id="edge11" class="edge"><title>User&#45;&gt;Profile</title>
<path fill="none" stroke="#258c50" d="M252.088,-712.065C251.066,-711.364 250.037,-710.675 249,-710 209.687,-684.407 180.606,-722.54 145,-692 104.333,-657.119 84.2745,-600.872 74.4102,-551.814"/>
<ellipse fill="none" stroke="#258c50" cx="255.488" cy="-714.531" rx="4.00002" ry="4.00002"/>
<ellipse fill="#258c50" stroke="#258c50" cx="73.6077" cy="-547.621" rx="4.00001" ry="4.00001"/>
</g>
<!-- User&#45;&gt;Course -->
<g id="edge10" class="edge"><title>User&#45;&gt;Course</title>
<path fill="none" stroke="#5b1ee5" d="M316.335,-702.291C302.366,-645.739 287.466,-585.426 275.851,-538.405"/>
<ellipse fill="none" stroke="#5b1ee5" cx="317.385" cy="-706.538" rx="4.00001" ry="4.00001"/>
<polygon fill="#5b1ee5" stroke="#5b1ee5" points="275.822,-538.287 277.792,-527.5 274.623,-533.433 273.423,-528.579 273.423,-528.579 273.423,-528.579 274.623,-533.433 269.055,-529.659 275.822,-538.287 275.822,-538.287"/>
</g>
<!-- User&#45;&gt;Unit -->
<g id="edge9" class="edge"><title>User&#45;&gt;Unit</title>
<path fill="none" stroke="#a7a9d4" d="M252.991,-713.748C251.669,-712.48 250.339,-711.23 249,-710 223.22,-686.313 199.197,-701.277 180,-672 126.396,-590.248 164.255,-328.44 139,-234 135.179,-219.712 130.035,-205.065 124.305,-190.862"/>
<ellipse fill="none" stroke="#a7a9d4" cx="255.885" cy="-716.607" rx="4.00002" ry="4.00002"/>
<polygon fill="#a7a9d4" stroke="#a7a9d4" points="124.295,-190.837 124.62,-179.876 122.379,-186.218 120.464,-181.6 120.464,-181.6 120.464,-181.6 122.379,-186.218 116.307,-183.324 124.295,-190.837 124.295,-190.837"/>
</g>
<!-- User&#45;&gt;Comment -->
<g id="edge7" class="edge"><title>User&#45;&gt;Comment</title>
<path fill="none" stroke="#a3baeb" d="M389.702,-702.168C391.232,-691.972 392.679,-681.859 394,-672 419.965,-478.172 369.856,-418.034 436,-234 444.271,-210.987 457.125,-188.116 470.766,-167.668"/>
<ellipse fill="none" stroke="#a3baeb" cx="389.059" cy="-706.404" rx="4.00001" ry="4.00001"/>
<polygon fill="#a3baeb" stroke="#a3baeb" points="470.8,-167.618 480.156,-161.897 473.62,-163.488 476.439,-159.359 476.439,-159.359 476.439,-159.359 473.62,-163.488 472.723,-156.822 470.8,-167.618 470.8,-167.618"/>
</g>
<!-- User&#45;&gt;Visit -->
<g id="edge8" class="edge"><title>User&#45;&gt;Visit</title>
<path fill="none" stroke="#0b2b5e" d="M465.634,-712.626C466.748,-711.736 467.87,-710.861 469,-710 511.821,-677.382 544.585,-708.661 584,-672 584.97,-671.098 585.929,-670.184 586.879,-669.259"/>
<ellipse fill="none" stroke="#0b2b5e" cx="462.412" cy="-715.314" rx="4.00002" ry="4.00002"/>
<polygon fill="#0b2b5e" stroke="#0b2b5e" points="587.006,-669.127 597.196,-665.075 590.485,-665.535 593.964,-661.944 593.964,-661.944 593.964,-661.944 590.485,-665.535 590.731,-658.813 587.006,-669.127 587.006,-669.127"/>
</g>
<!-- Question -->
<g id="node13" class="node"><title>Question</title>
<path fill="none" stroke="black" d="M456.5,-385C456.5,-385 563.5,-385 563.5,-385 569.5,-385 575.5,-391 575.5,-397 575.5,-397 575.5,-509 575.5,-509 575.5,-515 569.5,-521 563.5,-521 563.5,-521 456.5,-521 456.5,-521 450.5,-521 444.5,-515 444.5,-509 444.5,-509 444.5,-397 444.5,-397 444.5,-391 450.5,-385 456.5,-385"/>
<text text-anchor="middle" x="510" y="-505.8" font-family="Times,serif" font-size="14.00">Question</text>
<polyline fill="none" stroke="black" points="444.5,-498 575.5,-498 "/>
<text text-anchor="start" x="452.5" y="-482.8" font-family="Times,serif" font-size="14.00">id :INTEGER</text>
<text text-anchor="start" x="452.5" y="-467.8" font-family="Times,serif" font-size="14.00">title :varchar</text>
<text text-anchor="start" x="452.5" y="-452.8" font-family="Times,serif" font-size="14.00">description :text</text>
<text text-anchor="start" x="452.5" y="-437.8" font-family="Times,serif" font-size="14.00">screenshot :varchar</text>
<text text-anchor="start" x="452.5" y="-422.8" font-family="Times,serif" font-size="14.00">user_id :integer</text>
<text text-anchor="start" x="452.5" y="-407.8" font-family="Times,serif" font-size="14.00">created_at :datetime</text>
<text text-anchor="start" x="452.5" y="-392.8" font-family="Times,serif" font-size="14.00">updated_at :datetime</text>
</g>
<!-- User&#45;&gt;Question -->
<g id="edge6" class="edge"><title>User&#45;&gt;Question</title>
<path fill="none" stroke="#db4f4a" d="M426.223,-702.372C427.499,-698.888 428.76,-695.427 430,-692 449.351,-638.52 469.757,-577.734 485.116,-530.979"/>
<ellipse fill="none" stroke="#db4f4a" cx="424.784" cy="-706.282" rx="4.00001" ry="4.00001"/>
<polygon fill="#db4f4a" stroke="#db4f4a" points="485.2,-530.725 492.591,-522.625 486.757,-525.974 488.315,-521.223 488.315,-521.223 488.315,-521.223 486.757,-525.974 484.039,-519.821 485.2,-530.725 485.2,-530.725"/>
</g>
<!-- User&#45;&gt;ActsAsVotable::Vote -->
<g id="edge5" class="edge"><title>User&#45;&gt;ActsAsVotable::Vote</title>
<path fill="none" stroke="#687376" d="M359.661,-702.37C360.403,-508.826 361.547,-210.13 361.896,-119.191"/>
<ellipse fill="none" stroke="#687376" cx="359.646" cy="-706.38" rx="4" ry="4"/>
<polygon fill="#687376" stroke="#687376" points="361.896,-119.151 366.434,-109.169 361.915,-114.151 361.934,-109.151 361.934,-109.151 361.934,-109.151 361.915,-114.151 357.434,-109.134 361.896,-119.151 361.896,-119.151"/>
<text text-anchor="middle" x="375.5" y="-449.3" font-family="Times,serif" font-size="14.00">votes</text>
</g>
<!-- Question&#45;&gt;Comment -->
<g id="edge12" class="edge"><title>Question&#45;&gt;Comment</title>
<path fill="none" stroke="#4a343c" d="M514.606,-376.625C518.323,-315.811 523.531,-230.591 527.278,-169.276"/>
<ellipse fill="none" stroke="#4a343c" cx="514.356" cy="-380.717" rx="4" ry="4"/>
<polygon fill="#4a343c" stroke="#4a343c" points="527.279,-169.247 532.381,-159.54 527.584,-164.256 527.889,-159.266 527.889,-159.266 527.889,-159.266 527.584,-164.256 523.398,-158.991 527.279,-169.247 527.279,-169.247"/>
</g>
</g>
</svg>
